<?xml version="1.0" standalone="no"?>
<!DOCTYPE svg PUBLIC "-//W3C//DTD SVG 20010904//EN"
 "http://www.w3.org/TR/2001/REC-SVG-20010904/DTD/svg10.dtd">
<svg version="1.0" xmlns="http://www.w3.org/2000/svg"
 width="30.000000pt" height="42.000000pt" viewBox="0 0 30.000000 42.000000"
 preserveAspectRatio="xMidYMid meet">
<metadata>
Created by potrace 1.13, written by Peter Selinger 2001-2015
</metadata>
<g transform="translate(0.000000,42.000000) scale(0.100000,-0.100000)"
fill="#000000" stroke="none">
<path d="M0 210 l0 -210 150 0 150 0 0 210 0 210 -150 0 -150 0 0 -210z m181
103 c97 -93 97 -99 13 -185 -87 -88 -98 -94 -130 -73 -13 8 -24 21 -24 27 0 7
26 38 57 70 l57 58 -57 58 c-31 32 -57 62 -57 67 0 16 33 45 53 45 10 0 50
-30 88 -67z"/>
</g>
</svg>
